<svg width="85" height="27" viewBox="0 0 85 27" fill="none" xmlns="http://www.w3.org/2000/svg">
<g clip-path="url(#clip0)">
<path d="M15.0495 7.264C13.8217 6.01651 12.2562 5.16494 10.5507 4.81671C8.84523 4.46848 7.07601 4.63918 5.46625 5.30728C3.85649 5.97538 2.47829 7.11096 1.50551 8.57078C0.532721 10.0306 0.00891889 11.7492 0.000172363 13.51C-0.00711546 14.977 0.343515 16.4232 1.02096 17.7203C1.6984 19.0174 2.68171 20.1252 3.88365 20.9454C5.0856 21.7657 6.46902 22.2731 7.91119 22.4225C9.35336 22.572 10.8097 22.3589 12.151 21.8023C13.4923 21.2456 14.6771 20.3625 15.6002 19.2313C16.5234 18.1002 17.1565 16.7559 17.4432 15.3178C17.7299 13.8797 17.6614 12.3922 17.2439 10.9873C16.8263 9.58234 16.0726 8.30343 15.0495 7.264ZM8.80872 18.1141C7.90795 18.1133 7.02765 17.8422 6.27905 17.3352C5.53045 16.8282 4.94715 16.108 4.60284 15.2657C4.25854 14.4233 4.16868 13.4966 4.34463 12.6026C4.52058 11.7086 4.95443 10.8874 5.59137 10.2428C6.22832 9.59823 7.03976 9.15918 7.92319 8.98112C8.80661 8.80307 9.72236 8.894 10.5547 9.24243C11.3871 9.59086 12.0988 10.1812 12.5997 10.9387C13.1007 11.6963 13.3686 12.5872 13.3695 13.4987C13.3677 14.7223 12.8866 15.8952 12.0317 16.7603C11.1768 17.6255 10.0178 18.1124 8.80872 18.1141Z" fill="#3E3E3E"/>
<path d="M32.3736 4.61841C31.8439 4.61841 31.3358 4.83137 30.9612 5.21045C30.5867 5.58952 30.3762 6.10366 30.3762 6.63976V15.9155C30.3762 17.6808 28.7228 18.3097 27.1759 18.3097C25.5691 18.3097 23.8469 17.6875 23.8469 15.9402V6.63976C23.7863 6.15107 23.5515 5.70158 23.1866 5.37571C22.8217 5.04984 22.3517 4.87002 21.865 4.87002C21.3784 4.87002 20.9084 5.04984 20.5435 5.37571C20.1786 5.70158 19.9438 6.15107 19.8832 6.63976V15.9155C19.8832 19.0419 21.7985 22.3816 27.1737 22.3816C30.7535 22.3816 34.3644 20.3894 34.3644 15.9402V6.63976C34.3644 6.10483 34.1548 5.59171 33.7817 5.21282C33.4085 4.83394 32.9022 4.62019 32.3736 4.61841V4.61841Z" fill="#3E3E3E"/>
<path d="M68.3025 15.0485C68.0084 15.0493 67.7177 15.1134 67.4499 15.2365C67.182 15.3596 66.9431 15.539 66.749 15.7627L66.7246 15.7941C66.6713 15.8727 66.6136 15.9491 66.5515 16.0322C66.0911 16.6408 65.4849 17.1206 64.7902 17.4262C64.0955 17.7317 63.3353 17.8529 62.5815 17.7784C61.8276 17.7038 61.105 17.436 60.4819 17.0001C59.8589 16.5642 59.3559 15.9748 59.0206 15.2874C58.6853 14.6001 58.5288 13.8376 58.5658 13.072C58.6028 12.3064 58.8321 11.5629 59.232 10.912C59.632 10.261 60.1894 9.72405 60.8515 9.35179C61.5136 8.97953 62.2586 8.7843 63.0161 8.78453C63.6988 8.79069 64.3716 8.95047 64.9858 9.2523C65.6 9.55413 66.1401 9.99045 66.567 10.5296C66.6203 10.5948 66.6713 10.6644 66.7202 10.734L66.7401 10.7587C66.8988 10.9702 67.105 11.1403 67.3416 11.2551C68.7198 11.8952 70.3798 10.9496 70.371 9.36399C70.371 8.76432 70.1002 8.31963 69.7362 7.87044C69.5609 7.64584 69.3723 7.43922 69.1792 7.23933C67.5349 5.59033 65.3176 4.65906 63.0028 4.64526C60.73 4.64584 58.55 5.5573 56.9396 7.18028C55.3292 8.80326 54.4195 11.0056 54.4095 13.3056C54.4198 15.0247 54.9326 16.7023 55.8831 18.1272C56.8336 19.552 58.1795 20.6604 59.7512 21.3128C61.3229 21.9652 63.0502 22.1324 64.7156 21.7935C66.381 21.4545 67.9101 20.6244 69.1104 19.4078C69.3696 19.1391 69.6127 18.8548 69.8383 18.5566C69.9961 18.363 70.1282 18.1493 70.2311 17.921C70.3295 17.6757 70.3793 17.4132 70.3776 17.1484C70.3776 16.5915 70.159 16.0574 69.7698 15.6635C69.3807 15.2697 68.8529 15.0485 68.3025 15.0485Z" fill="#3E3E3E"/>
<path d="M83.4628 18.094C83.363 18.0777 83.2621 18.0695 83.161 18.0693H76.6405L76.6272 14.7386H83.2963C83.5266 14.7386 83.7546 14.6927 83.9673 14.6035C84.18 14.5143 84.3733 14.3837 84.5361 14.2189C84.6989 14.0541 84.828 13.8585 84.9162 13.6433C85.0043 13.428 85.0496 13.1973 85.0496 12.9643C85.0496 12.7313 85.0043 12.5006 84.9162 12.2853C84.828 12.07 84.6989 11.8744 84.5361 11.7097C84.3733 11.5449 84.18 11.4142 83.9673 11.325C83.7546 11.2359 83.5266 11.19 83.2963 11.19H76.6272V8.51282H83.1476C83.6464 8.49568 84.119 8.28313 84.4658 7.92004C84.8126 7.55694 85.0065 7.0717 85.0065 6.56671C85.0065 6.06173 84.8126 5.57649 84.4658 5.21339C84.119 4.8503 83.6464 4.63775 83.1476 4.62061H74.7141C74.2044 4.6212 73.7156 4.82623 73.355 5.1908C72.9943 5.55536 72.7912 6.04973 72.79 6.56559C72.79 6.56559 72.8033 20.0412 72.8033 20.0412C72.8058 20.5226 72.9854 20.9858 73.3071 21.3405C73.6288 21.6951 74.0695 21.9157 74.5433 21.9593H83.3052C84.9098 21.847 85.6577 19.765 84.5148 18.633C84.2284 18.3465 83.8605 18.158 83.4628 18.094Z" fill="#3E3E3E"/>
<path d="M50.7409 4.64988C50.5427 4.62475 50.3421 4.62475 50.1439 4.64988C49.7068 4.70694 49.3009 4.90966 48.9902 5.22606C48.6796 5.54246 48.4819 5.95452 48.4283 6.39723C48.3795 6.88684 48.4283 14.8936 48.4283 15.2373C48.4283 15.2373 41.2443 5.9413 40.4387 5.13051C40.3473 5.04467 40.2469 4.96935 40.1391 4.90592C39.777 4.69525 39.3601 4.60111 38.9438 4.63602C38.5276 4.67092 38.1317 4.83321 37.8088 5.10132C37.1785 5.64933 37.143 6.44888 37.143 7.22598C37.143 7.38319 37.143 19.7112 37.143 19.8325C37.1403 20.1203 37.1884 20.4062 37.285 20.6769C37.4377 21.1141 37.7382 21.4826 38.1334 21.7172C38.5287 21.9518 38.9931 22.0375 39.4447 21.959C39.8963 21.8805 40.3059 21.6429 40.6011 21.2883C40.8963 20.9336 41.0581 20.4848 41.0579 20.0211V11.381L48.8256 21.189L48.8944 21.2743C49.045 21.4604 49.2259 21.6192 49.4292 21.7437C49.5191 21.7978 49.6143 21.8422 49.7133 21.8763C49.9334 21.9535 50.164 21.9952 50.3969 21.9998C51.3778 21.9998 52.3632 21.1463 52.3632 20.1559V6.55669C52.3648 6.09448 52.2017 5.64718 51.9037 5.29692C51.6056 4.94665 51.1928 4.71691 50.7409 4.64988Z" fill="#3E3E3E"/>
</g>
<defs>
<clipPath id="clip0">
<rect width="85" height="27" fill="white"/>
</clipPath>
</defs>
</svg>
