<svg width="12" height="22" viewBox="0 0 12 22" fill="none" xmlns="http://www.w3.org/2000/svg">
<path d="M2.36719 1.00391C2.10938 0.746093 1.78125 0.605468 1.39453 0.605468C0.621096 0.605468 1.76416e-06 1.21484 1.69655e-06 1.98828C1.66274e-06 2.375 0.164064 2.72656 0.433595 2.99609L8.63672 11.0117L0.433594 19.0039C0.164063 19.2734 1.53673e-07 19.6367 1.20889e-07 20.0117C5.32733e-08 20.7852 0.621094 21.3945 1.39453 21.3945C1.78125 21.3945 2.10938 21.2539 2.36719 20.9961L11.4844 12.0898C11.8125 11.7852 11.9648 11.4102 11.9766 11C11.9766 10.5898 11.8125 10.2383 11.4844 9.92187L2.36719 1.00391Z" fill="#7E7E7E"/>
</svg>
