<svg width="375" height="340" viewBox="0 0 375 340" fill="none" xmlns="http://www.w3.org/2000/svg">
<path d="M56 147.11C6.99998 204.06 29 283.64 107.08 297.36C185.16 311.08 290.48 281.36 317.08 192.85C339.39 118.56 320.32 62.7901 249.47 24.8501C216.24 7.00005 156.3 9.31005 126.05 31.9301C67.64 75.6001 96.24 100.34 56 147.11Z" fill="#F4DDCB"/>
<path d="M251.69 206.79C251.69 206.79 284.62 124 325.23 125C326.623 138.939 325.949 153.008 323.23 166.75C320.92 177.75 309.23 211.44 309.23 211.44H282.06L251.69 206.79Z" fill="#B8C8C7"/>
<path d="M49 157.12C29.53 184.3 25.38 215.12 35 241.12L191.5 213.69C145 152.52 85.07 150.87 49 157.12Z" fill="#9AB9B3"/>
<path d="M33.4302 236.9C33.4302 236.9 94.3001 176.21 297.43 237.33L297.75 266.92C298 290 256.43 333.5 160.25 325.58C61.5502 317.45 40.2502 286.5 34.2502 260.8C31.5702 249.33 33.4302 236.9 33.4302 236.9Z" fill="#82A69A"/>
<path d="M179.66 154.08L159.52 145.81C154.71 143.81 150.6 148.27 152.28 153.64L158.39 173.14L179.66 154.08Z" fill="#EF8C6B"/>
<path d="M226.29 158.06L209.29 132.54C206.48 128.13 200.49 129.35 198.73 134.69L192.33 154.11L226.29 158.06Z" fill="#4F4F4F"/>
<path d="M329.38 228.64C329.38 228.64 287.47 190 299.6 162.35C300.585 160.14 302.113 158.214 304.042 156.753C305.971 155.291 308.237 154.34 310.632 153.989C313.026 153.638 315.471 153.898 317.738 154.744C320.005 155.59 322.021 156.996 323.6 158.83C330.6 167.14 343.22 201.6 343.16 243.57L329.38 228.64Z" fill="#4F4F4F"/>
<path d="M275.59 262.67C286.14 248.16 304.69 243.24 323.73 253.58C321.05 241.58 315.81 219.76 322.06 205.58C289.42 180.47 236.33 178.23 230.92 175.93C231.53 171.93 236.07 150.75 206.58 147.85C202.649 147.366 198.691 147.142 194.73 147.18C185.73 146.76 181.55 159.64 168.16 159.18C148.48 158.5 144.81 228.18 192.28 273.37C224.45 299.78 252.28 303.42 274.96 303.37C265.38 289.65 266.78 274.78 275.59 262.67Z" fill="white"/>
<path d="M330.88 281.21C331.82 280.14 332.72 279.01 333.59 277.84C329.76 271.6 328.3 257.73 326.15 248.09C307.15 237.75 286.15 248.16 275.59 262.67C266.78 274.78 248.42 288.77 258 302.5C292 308.5 323.59 289.54 330.88 281.21Z" fill="#4F4F4F"/>
<path d="M314.61 245.65C316.76 255.29 327.49 270.81 333.61 277.84C341.7 266.92 346.96 249.25 343.09 235.59C340.33 225.85 337.8 216.99 319.09 203.36C311.87 217.53 311.94 233.63 314.61 245.65Z" fill="#FF8762"/>
<path d="M203.55 162.863C204.658 162.392 205.177 161.117 204.709 160.014C204.24 158.91 202.962 158.398 201.854 158.868C200.746 159.339 200.227 160.615 200.695 161.718C201.164 162.821 202.442 163.334 203.55 162.863Z" fill="#4F4F4F"/>
<path d="M189.762 167.68C190.87 167.209 191.388 165.934 190.92 164.83C190.451 163.727 189.173 163.215 188.065 163.685C186.957 164.156 186.438 165.432 186.907 166.535C187.375 167.638 188.653 168.151 189.762 167.68Z" fill="#4F4F4F"/>
<path d="M247.25 134.38C254.47 124.58 243.6 120.44 236.9 121.67C232.85 122.41 230.54 124.84 229.18 129.05C223.18 147.72 227.07 170.72 232.18 182.23C236.82 192.58 278.48 214.59 275.18 193.92C269.3 157.3 247.25 134.38 247.25 134.38Z" fill="white"/>
<path d="M196.77 175.27C197.28 177.7 201.54 183 205.28 180.15C206.36 179.32 208.79 176.31 202.09 172.62C202.09 172.62 197.23 173.86 196.77 175.27Z" fill="#F5937C"/>
<path d="M199.23 173.57C198.985 173.474 198.782 173.293 198.66 173.06L195.86 167.63C195.727 167.377 195.701 167.081 195.786 166.808C195.872 166.535 196.062 166.308 196.315 166.175C196.568 166.042 196.864 166.016 197.137 166.101C197.41 166.186 197.637 166.377 197.77 166.63L200.29 171.53L212.59 172.6C212.874 172.625 213.136 172.762 213.319 172.981C213.502 173.199 213.59 173.481 213.565 173.765C213.54 174.049 213.403 174.311 213.184 174.494C212.966 174.677 212.684 174.765 212.4 174.74L199.52 173.61C199.422 173.612 199.324 173.598 199.23 173.57Z" fill="#4F4F4F"/>
<path d="M190.6 181.62C190.448 181.561 190.312 181.469 190.2 181.35C190.006 181.141 189.903 180.865 189.912 180.58C189.922 180.295 190.043 180.026 190.25 179.83L198.88 171.78C198.983 171.684 199.104 171.61 199.236 171.561C199.368 171.511 199.508 171.489 199.649 171.494C199.79 171.499 199.928 171.532 200.056 171.59C200.184 171.649 200.299 171.732 200.395 171.835C200.491 171.938 200.566 172.059 200.615 172.191C200.664 172.323 200.686 172.463 200.681 172.604C200.676 172.745 200.644 172.883 200.585 173.011C200.526 173.139 200.443 173.254 200.34 173.35L191.71 181.4C191.565 181.538 191.383 181.632 191.187 181.671C190.99 181.71 190.787 181.692 190.6 181.62Z" fill="#4F4F4F"/>
<path d="M220.57 193.23L205.3 192.29C204.831 192.279 204.368 192.4 203.964 192.639C203.56 192.879 203.232 193.227 203.017 193.645C202.802 194.062 202.709 194.532 202.748 194.999C202.788 195.467 202.958 195.915 203.24 196.29L213.8 209.55C214.055 209.901 214.396 210.18 214.791 210.36C215.186 210.54 215.621 210.614 216.053 210.576C216.485 210.537 216.9 210.388 217.257 210.141C217.614 209.895 217.901 209.56 218.09 209.17L222.8 196.86C222.99 196.479 223.08 196.055 223.061 195.629C223.043 195.203 222.916 194.789 222.692 194.426C222.469 194.063 222.157 193.763 221.786 193.553C221.415 193.344 220.996 193.233 220.57 193.23Z" fill="#4F4F4F"/>
<path d="M222.4 196.61L236.68 196.19C237.143 196.162 237.59 196.007 237.97 195.741C238.35 195.474 238.649 195.108 238.833 194.682C239.017 194.256 239.08 193.788 239.014 193.328C238.949 192.869 238.757 192.437 238.46 192.08L230.06 180.29C229.783 179.958 229.424 179.703 229.02 179.551C228.615 179.399 228.177 179.354 227.75 179.422C227.323 179.49 226.92 179.667 226.582 179.936C226.244 180.206 225.981 180.559 225.82 180.96L219.94 193.17C219.783 193.561 219.728 193.985 219.778 194.404C219.828 194.822 219.983 195.221 220.228 195.564C220.473 195.906 220.801 196.182 221.18 196.365C221.56 196.548 221.979 196.632 222.4 196.61Z" fill="#4F4F4F"/>
<path d="M185.57 223.69L180.33 208.59C168.8 200.92 177.83 192 177.83 192C179.83 190.48 182.83 188.44 187.02 189.81C188.325 190.25 189.526 190.953 190.55 191.875C191.573 192.796 192.397 193.918 192.97 195.17C204.39 199.31 219.38 208.44 226.65 219.23C232.99 228.63 238.82 243.29 219.09 250.29C219.09 250.29 198 255.1 185.57 223.69Z" fill="white"/>
<path d="M219.64 212.63C219.798 212.657 219.961 212.648 220.115 212.602C220.269 212.557 220.411 212.478 220.53 212.37C220.635 212.281 220.721 212.17 220.782 212.046C220.842 211.922 220.877 211.786 220.882 211.648C220.888 211.51 220.865 211.372 220.815 211.243C220.764 211.115 220.688 210.998 220.59 210.9C213.229 203.127 203.967 197.408 193.72 194.31C192.393 191.716 190.103 189.745 187.34 188.82C185.046 188.035 182.538 188.168 180.34 189.19C178.03 190.247 176.12 192.017 174.89 194.24C174.473 195.016 174.138 195.834 173.89 196.68C173.851 196.811 173.837 196.949 173.851 197.086C173.865 197.222 173.906 197.354 173.971 197.475C174.036 197.596 174.124 197.702 174.23 197.789C174.336 197.876 174.459 197.941 174.59 197.98C174.721 198.019 174.859 198.033 174.995 198.019C175.132 198.005 175.264 197.964 175.385 197.899C175.506 197.834 175.612 197.746 175.699 197.64C175.786 197.534 175.851 197.411 175.89 197.28C176.103 196.584 176.391 195.913 176.75 195.28C177.764 193.453 179.333 191.996 181.23 191.12C182.95 190.316 184.915 190.212 186.71 190.83C187.866 191.227 188.931 191.851 189.842 192.667C190.752 193.483 191.49 194.474 192.01 195.58C192.066 195.727 192.155 195.859 192.272 195.965C192.388 196.071 192.528 196.148 192.68 196.19C202.746 199.155 211.849 204.726 219.07 212.34C219.225 212.494 219.424 212.595 219.64 212.63Z" fill="#4F4F4F"/>
<path d="M269 254.7C268.812 254.702 268.626 254.658 268.46 254.57C268.21 254.425 268.026 254.189 267.947 253.91C267.869 253.632 267.902 253.334 268.04 253.08C286.97 219.28 273.47 184.88 273.33 184.54C273.262 184.284 273.29 184.013 273.408 183.776C273.525 183.539 273.725 183.353 273.97 183.252C274.215 183.152 274.488 183.144 274.738 183.23C274.988 183.316 275.199 183.49 275.33 183.72C275.47 184.07 289.33 219.41 269.93 254.15C269.835 254.314 269.7 254.451 269.537 254.547C269.374 254.643 269.189 254.696 269 254.7Z" fill="#4F4F4F"/>
<path d="M231.9 271.59C208.39 271.59 192.38 264.19 182.46 257.13C168.86 247.46 163.58 236.6 163.36 236.13C163.298 235.999 163.263 235.857 163.256 235.712C163.25 235.567 163.271 235.422 163.321 235.285C163.37 235.149 163.445 235.023 163.543 234.916C163.641 234.809 163.759 234.722 163.89 234.66C164.021 234.598 164.164 234.563 164.309 234.556C164.453 234.55 164.598 234.571 164.735 234.621C164.871 234.67 164.997 234.746 165.104 234.843C165.211 234.941 165.298 235.059 165.36 235.19C165.36 235.3 170.67 246.06 183.85 255.41C205.9 271.03 232.85 270.75 251.54 267.77C251.82 267.736 252.102 267.811 252.327 267.98C252.552 268.149 252.703 268.399 252.748 268.677C252.794 268.955 252.73 269.24 252.57 269.471C252.41 269.703 252.166 269.864 251.89 269.92C245.282 271.007 238.597 271.565 231.9 271.59Z" fill="#4F4F4F"/>
<path d="M284.18 103.21C283.72 106.02 276.84 107.21 270.08 105.35C264.22 103.71 260.29 98.85 260.91 96.21C261.53 93.57 271.91 95.56 277.65 97.64C283.61 99.8 284.41 101.83 284.18 103.21Z" fill="#F5937C"/>
<path d="M283.92 101C286.39 101.06 286.92 105.59 285.21 111.46C283.85 116.19 280.92 120.04 278.57 119.84C276.22 119.64 277.24 111.84 278.68 107.07C280.19 102.07 282.7 101 283.92 101Z" fill="#F5937C"/>
<path d="M281.84 101.42C280.78 103.24 284.96 106.42 291.75 108.92C296.75 110.77 301.75 110.34 302.61 108.52C303.47 106.7 297 103.73 292 102.28C286.61 100.75 282.36 100.51 281.84 101.42Z" fill="#F5937C"/>
<path d="M285.33 104.54C286.93 105.04 289.9 102.54 291.09 97.47C292.56 91.21 288.74 85.87 285.99 85.06C283.24 84.25 281.8 87.42 281.24 93.82C280.64 100.57 283.91 104.1 285.33 104.54Z" fill="#F5937C"/>
<path d="M281.6 99.6701H281.46C281.318 99.6529 281.18 99.6075 281.056 99.5366C280.931 99.4656 280.822 99.3706 280.734 99.2571C280.647 99.1435 280.583 99.0137 280.546 98.8751C280.509 98.7366 280.5 98.5921 280.52 98.4501C281.26 92.5201 277.61 89.8001 277.45 89.6801C277.214 89.5117 277.054 89.2564 277.007 88.9704C276.959 88.6844 277.027 88.3911 277.195 88.1551C277.363 87.919 277.619 87.7596 277.905 87.7118C278.191 87.6639 278.484 87.7317 278.72 87.9001C278.92 88.0501 283.59 91.4501 282.72 98.7301C282.683 98.9977 282.548 99.2421 282.341 99.4157C282.134 99.5894 281.87 99.6801 281.6 99.6701Z" fill="#4F4F4F"/>
<path d="M281.39 99.66C281.253 99.6576 281.117 99.6305 280.99 99.58C273.88 96.82 271.71 91.9 271.62 91.7C271.518 91.4286 271.524 91.1284 271.637 90.8614C271.75 90.5943 271.961 90.381 272.227 90.2653C272.493 90.1497 272.793 90.1408 273.065 90.2403C273.338 90.3398 273.561 90.5402 273.69 90.8C273.69 90.8 275.63 95.08 281.8 97.48C282.044 97.5768 282.246 97.7554 282.372 97.9851C282.499 98.2147 282.541 98.4812 282.493 98.7388C282.444 98.9965 282.308 99.2293 282.107 99.3973C281.905 99.5654 281.652 99.6582 281.39 99.66Z" fill="#4F4F4F"/>
<path d="M163.19 150.76C162.97 149.204 163.195 147.617 163.839 146.184C164.483 144.75 165.52 143.529 166.83 142.66C170.104 140.71 173.572 139.107 177.18 137.88C180.592 136.563 184.141 135.634 187.76 135.11C189.146 134.971 190.545 135.2 191.814 135.774C193.083 136.348 194.179 137.247 194.99 138.38L199.94 145.01C199.94 145.01 222.95 145.364 222.5 146.184C222.34 146.484 204.1 149.15 193.33 153.8C186.4 156.8 179.33 162.59 172.08 165.35C160.08 169.94 153.24 169.04 153.24 169.04L164.24 159.61L163.19 150.76Z" fill="#4F4F4F"/>
<path d="M147.08 217.78C146.815 217.78 146.561 217.675 146.373 217.487C146.186 217.3 146.08 217.045 146.08 216.78C145.41 201.45 148.33 179.66 166 162.86C166.23 162.64 166.41 162.47 166.54 162.33C166.735 162.136 166.999 162.028 167.274 162.029C167.548 162.03 167.812 162.14 168.005 162.335C168.199 162.53 168.307 162.794 168.306 163.069C168.305 163.343 168.195 163.606 168 163.8L167.42 164.36C150.3 180.63 147.49 201.81 148.14 216.71C148.15 216.847 148.131 216.985 148.085 217.114C148.039 217.244 147.967 217.362 147.873 217.463C147.779 217.563 147.666 217.643 147.54 217.698C147.414 217.752 147.278 217.78 147.14 217.78H147.08Z" fill="#4F4F4F"/>
<path d="M147.25 220.09C149.072 220.09 150.55 218.613 150.55 216.79C150.55 214.967 149.072 213.49 147.25 213.49C145.427 213.49 143.95 214.967 143.95 216.79C143.95 218.613 145.427 220.09 147.25 220.09Z" fill="#4F4F4F"/>
<path d="M255.18 269C254.844 268.999 254.509 268.966 254.18 268.9C252.724 268.543 251.387 267.811 250.302 266.775C249.218 265.74 248.424 264.438 248 263C247.762 262.385 247.703 261.715 247.829 261.068C247.955 260.42 248.261 259.822 248.713 259.341C249.164 258.86 249.743 258.517 250.381 258.35C251.019 258.184 251.691 258.201 252.32 258.4C253.777 258.745 255.118 259.465 256.209 260.49C257.301 261.515 258.104 262.808 258.54 264.24C258.748 264.86 258.791 265.524 258.664 266.165C258.538 266.807 258.247 267.405 257.82 267.9C257.485 268.263 257.076 268.549 256.62 268.738C256.165 268.928 255.673 269.018 255.18 269ZM251.28 260.16C251.044 260.146 250.808 260.18 250.586 260.261C250.364 260.342 250.161 260.467 249.99 260.63C249.783 260.915 249.648 261.246 249.598 261.594C249.547 261.943 249.582 262.298 249.7 262.63C250.053 263.73 250.679 264.721 251.521 265.512C252.362 266.302 253.391 266.866 254.51 267.15C254.85 267.255 255.211 267.274 255.561 267.204C255.91 267.134 256.236 266.978 256.51 266.75C256.715 266.464 256.848 266.133 256.898 265.785C256.949 265.437 256.915 265.082 256.8 264.75C256.463 263.642 255.83 262.646 254.97 261.87C254.143 261.053 253.104 260.485 251.97 260.23C251.745 260.17 251.513 260.137 251.28 260.13V260.16Z" fill="#4F4F4F"/>
<path d="M268.52 256.11C268.184 256.109 267.849 256.076 267.52 256.01C266.068 255.658 264.731 254.935 263.643 253.911C262.554 252.888 261.75 251.598 261.31 250.17C261.074 249.555 261.015 248.885 261.142 248.238C261.268 247.591 261.575 246.992 262.025 246.511C262.476 246.03 263.054 245.686 263.691 245.518C264.329 245.349 265.001 245.364 265.63 245.56C267.087 245.909 268.426 246.633 269.517 247.659C270.608 248.685 271.412 249.978 271.85 251.41C272.058 252.03 272.101 252.694 271.974 253.335C271.848 253.977 271.557 254.575 271.13 255.07C270.792 255.416 270.385 255.688 269.935 255.867C269.486 256.046 269.004 256.129 268.52 256.11ZM264.63 247.27C264.393 247.254 264.155 247.288 263.931 247.369C263.707 247.45 263.502 247.576 263.33 247.74C263.123 248.025 262.989 248.356 262.938 248.704C262.888 249.053 262.923 249.408 263.04 249.74C263.393 250.839 264.019 251.831 264.861 252.622C265.702 253.412 266.731 253.976 267.85 254.26C268.191 254.362 268.551 254.379 268.9 254.31C269.249 254.24 269.575 254.086 269.85 253.86C270.054 253.574 270.187 253.243 270.237 252.895C270.288 252.547 270.254 252.192 270.14 251.86C269.803 250.752 269.17 249.756 268.31 248.98C267.481 248.167 266.442 247.599 265.31 247.34C265.086 247.297 264.858 247.273 264.63 247.27Z" fill="#4F4F4F"/>
<path d="M261.56 262.23C261.224 262.23 260.889 262.197 260.56 262.13C259.105 261.782 257.765 261.06 256.675 260.036C255.584 259.012 254.779 257.721 254.34 256.29C254.105 255.674 254.048 255.005 254.176 254.358C254.304 253.711 254.612 253.114 255.064 252.633C255.515 252.153 256.093 251.81 256.731 251.644C257.369 251.477 258.041 251.493 258.67 251.69C260.125 252.037 261.463 252.759 262.552 253.783C263.642 254.808 264.444 256.1 264.88 257.53C265.089 258.149 265.133 258.812 265.009 259.454C264.884 260.096 264.595 260.694 264.17 261.19C263.832 261.537 263.425 261.809 262.975 261.988C262.526 262.167 262.043 262.25 261.56 262.23ZM257.67 253.39C257.433 253.376 257.195 253.41 256.971 253.491C256.748 253.571 256.543 253.697 256.37 253.86C256.164 254.145 256.031 254.477 255.982 254.825C255.933 255.174 255.97 255.529 256.09 255.86C256.419 256.97 257.049 257.967 257.91 258.74C258.736 259.557 259.776 260.125 260.91 260.38C261.25 260.485 261.611 260.504 261.961 260.434C262.31 260.364 262.636 260.208 262.91 259.98C263.116 259.695 263.249 259.363 263.298 259.015C263.347 258.666 263.31 258.311 263.19 257.98C262.858 256.869 262.229 255.869 261.37 255.09C260.54 254.279 259.502 253.715 258.37 253.46C258.14 253.41 257.905 253.387 257.67 253.39Z" fill="#4F4F4F"/>
<path d="M265 259.13C264.664 259.13 264.329 259.097 264 259.03C262.533 258.705 261.186 257.978 260.11 256.93C257.56 254.53 256.85 251.28 258.5 249.53C260.15 247.78 263.43 248.28 265.99 250.68C267.103 251.687 267.911 252.986 268.32 254.43C268.527 255.05 268.569 255.713 268.443 256.355C268.317 256.996 268.026 257.594 267.6 258.09C267.263 258.435 266.858 258.706 266.41 258.885C265.962 259.064 265.482 259.147 265 259.13ZM261.1 250.29C260.864 250.275 260.628 250.309 260.406 250.39C260.184 250.471 259.981 250.597 259.81 250.76C259 251.62 259.43 253.83 261.34 255.62C262.172 256.429 263.21 256.996 264.34 257.26C264.681 257.363 265.043 257.379 265.392 257.308C265.741 257.236 266.067 257.079 266.34 256.85C266.55 256.567 266.687 256.236 266.737 255.887C266.788 255.537 266.751 255.181 266.63 254.85C266.297 253.742 265.668 252.746 264.81 251.97C263.803 250.976 262.472 250.38 261.06 250.29H261.1Z" fill="#4F4F4F"/>
<path d="M258.34 265.64C256.5 265.536 254.764 264.752 253.47 263.44C250.92 261.04 250.21 257.79 251.86 256.04C253.51 254.29 256.79 254.79 259.35 257.19C261.91 259.59 262.61 262.84 260.97 264.6C260.627 264.945 260.216 265.216 259.764 265.395C259.311 265.574 258.826 265.657 258.34 265.64ZM254.48 256.81C254.242 256.794 254.003 256.827 253.778 256.906C253.553 256.985 253.346 257.109 253.17 257.27C252.36 258.13 252.79 260.34 254.71 262.13C256.63 263.92 258.85 264.22 259.65 263.37C260.45 262.52 260.03 260.3 258.12 258.5C257.153 257.512 255.859 256.911 254.48 256.81Z" fill="#4F4F4F"/>
<path d="M295.416 271.489L272.273 247.407C271.178 246.268 269.368 246.232 268.229 247.326L249.425 265.397C248.286 266.492 248.25 268.302 249.344 269.441L272.487 293.524C273.581 294.663 275.392 294.699 276.531 293.604L295.335 275.533C296.474 274.439 296.51 272.628 295.416 271.489Z" fill="#FF8762"/>
<path d="M229.4 183.74C229.199 183.744 229 183.691 228.827 183.588C228.654 183.485 228.513 183.336 228.421 183.157C228.328 182.978 228.287 182.776 228.303 182.576C228.319 182.375 228.391 182.182 228.51 182.02C239.59 166.5 226.67 156.02 226.12 155.56C226.002 155.474 225.903 155.364 225.828 155.238C225.753 155.112 225.705 154.973 225.685 154.828C225.665 154.683 225.675 154.535 225.714 154.394C225.752 154.253 225.819 154.121 225.91 154.006C226 153.891 226.113 153.796 226.241 153.726C226.37 153.655 226.511 153.612 226.657 153.597C226.802 153.582 226.949 153.597 227.089 153.641C227.229 153.684 227.358 153.756 227.47 153.85C227.62 153.97 242.59 166.05 230.29 183.29C230.186 183.429 230.052 183.542 229.898 183.62C229.743 183.698 229.573 183.739 229.4 183.74Z" fill="#4F4F4F"/>
<path d="M73 236.05C71.33 236.05 70 236.77 70 233.96V100.08C70 97.27 71.35 94.99 73 94.99C74.65 94.99 76 97.27 76 100.08V234C76 236.77 74.63 236.05 73 236.05Z" fill="#1F5249"/>
<path d="M99.17 223.69C98 223.69 97.05 222.09 97.05 220.12V126.12C97.05 124.12 98.05 122.56 99.17 122.56C100.29 122.56 101.29 124.15 101.29 126.12V220.12C101.29 222.09 100.34 223.69 99.17 223.69Z" fill="#82A69A"/>
<path d="M115.34 139.13C115.34 144.13 108.1 146.01 99.17 146.01C90.24 146.01 83 144.15 83 139.13C83 134.11 90.25 120.24 99.18 120.24C108.11 120.24 115.34 134.11 115.34 139.13Z" fill="#82A69A"/>
<path d="M120.93 169.7C120.93 175.04 111.12 177.47 99.1 177.27C87.08 177.07 77.36 174.27 77.4 168.97C77.44 163.67 87.26 147.9 99.28 148.1C111.3 148.3 121 164.35 120.93 169.7Z" fill="#82A69A"/>
<path d="M118.18 154.8C118.18 159.48 109.67 163.26 99.1799 163.26C88.6899 163.26 80.1799 159.48 80.1799 154.8C80.1799 150.12 88.6999 139.23 99.1799 139.23C109.66 139.23 118.18 150.13 118.18 154.8Z" fill="#82A69A"/>
<path d="M119.7 227.46C118.7 227.46 117.85 226.07 117.85 224.35V142.25C117.85 140.53 118.67 139.13 119.7 139.13C120.73 139.13 121.55 140.53 121.55 142.25V224.35C121.55 226.07 120.72 227.46 119.7 227.46Z" fill="#82A69A"/>
<path d="M133.82 153.6C133.82 157.99 127.5 159.6 119.7 159.6C111.9 159.6 105.57 157.98 105.57 153.6C105.57 149.22 111.9 137.11 119.7 137.11C127.5 137.11 133.82 149.22 133.82 153.6Z" fill="#82A69A"/>
<path d="M138.71 180.3C138.71 184.97 130.14 187.09 119.64 186.91C109.14 186.73 100.64 184.34 100.64 179.67C100.64 175 109.25 161.26 119.75 161.44C130.25 161.62 138.75 175.63 138.71 180.3Z" fill="#82A69A"/>
<path d="M136.3 167.29C136.3 171.37 128.87 174.68 119.7 174.68C110.53 174.68 103.09 171.37 103.09 167.29C103.09 163.21 110.53 153.69 119.7 153.69C128.87 153.69 136.3 163.21 136.3 167.29Z" fill="#82A69A"/>
<path d="M96 121.44C96 128.59 85.69 131.24 73 131.24C60.31 131.24 50 128.59 50 121.44C50 114.29 60.24 94.53 73 94.53C85.76 94.53 96 114.28 96 121.44Z" fill="#1F5249"/>
<path d="M104 165C103.93 172.62 90 176.07 72.89 175.78C55.78 175.49 41.89 171.58 41.99 163.96C42.09 156.34 55.99 133.96 73.16 134.23C90.33 134.5 104 157.36 104 165Z" fill="#1F5249"/>
<path d="M100.05 143.77C100.05 150.42 87.9201 155.77 72.9601 155.77C58.0001 155.77 45.8801 150.37 45.8801 143.77C45.8801 137.17 58.0001 121.58 73.0001 121.58C88.0001 121.58 100.05 137.11 100.05 143.77Z" fill="#1F5249"/>
<path d="M86.6464 271.962C107.263 269.384 122.759 257.568 121.258 245.572C119.758 233.576 101.829 225.942 81.2124 228.521C60.5961 231.1 45.0997 242.915 46.6003 254.911C48.1009 266.907 66.0301 274.541 86.6464 271.962Z" fill="#82A69A"/>
<path fill-rule="evenodd" clip-rule="evenodd" d="M6.17877 45.1501C-3.22123 45.1501 -10.8612 49.8001 -13.7012 57.3901C-16.9112 56.7501 -19.6512 56.8601 -22.0112 59.3201C-23.6612 60.9701 -23.5412 64.3201 -19.3612 64.3201L50 64.3201H149.47C153.65 64.3201 153.77 60.9701 152.12 59.3201C149.76 56.8601 147.02 56.7501 143.81 57.3901C140.97 49.8001 133.33 45.1501 123.93 45.1501C119.058 45.1217 114.305 46.6569 110.37 49.5301C109.412 46.7312 109.069 45.836 106.967 43.755C104.864 41.674 102.309 40.1079 99.5 39.1791C96.6914 38.2503 93.706 37.9842 90.7774 38.4014C87.8488 38.8186 85.0565 39.908 82.619 41.5841C79 36.9999 72.5 34.0408 65.8177 34.0408C65.6054 34.0344 65.3932 34.0321 65.1812 34.0336C64.8817 34.0297 64.5848 34.032 64.291 34.0408C58.7541 34.2067 53 36 48.7388 39.9401C46.3013 38.2639 43.509 37.1746 40.5804 36.7573C37.6518 36.3401 34.6664 36.6063 31.8578 37.5351C29.0492 38.4638 26.4937 40.03 24.3912 42.1109C22.2887 44.1919 20.6964 46.7312 19.7388 49.5301C15.8038 46.6569 11.051 45.1217 6.17877 45.1501Z" fill="white"/>
<path d="M226.72 100.84C226.42 96.5201 219.95 97.0101 217.87 97.5301C216.2 92.5301 209.97 88.8101 202.56 87.9801C197.09 87.3139 191.549 88.3622 186.7 90.9801C185.455 89.3348 183.834 88.012 181.972 87.1229C180.11 86.2337 178.062 85.8041 176 85.8701C165.93 86.0701 164.6 92.1501 164.33 92.3601C162.52 90.9601 160.09 88.3601 153.26 88.3601C132.48 88.5601 133.86 105.3 145.73 105.07C143.05 105.12 219.53 105.3 219.53 105.3C226.13 105.33 226.79 101.86 226.72 100.84Z" fill="white"/>
<path d="M229 155.5C216.5 159 196.833 156.333 191.5 152V148C208.7 144.8 224 149.5 229 155.5Z" fill="#4F4F4F"/>
</svg>
