<svg width="362" height="319" viewBox="0 0 362 319" fill="none" xmlns="http://www.w3.org/2000/svg">
<path opacity="0.25" d="M132.306 127.178C132.156 128.728 126.366 129.408 121.836 128.948C117.306 128.488 115.756 127.068 115.906 125.528C116.056 123.988 117.906 122.898 122.396 123.358C126.886 123.818 132.466 125.638 132.306 127.178Z" fill="#4F4F4F"/>
<path d="M171.616 250.118C224.446 303.528 335.546 284.938 355.486 208.258C375.426 131.578 348.236 50.128 262.126 16.528C189.856 -11.672 83.446 -8.47198 58.676 63.208C46.366 98.818 47.336 135.668 67.446 167.638C106.286 229.368 128.226 206.248 171.616 250.118Z" fill="#2963A2"/>
<path d="M349.536 98.488C347.422 96.7945 345.557 94.8117 343.996 92.598C329.436 71.598 311.636 86.768 311.636 86.768C288.636 103.258 277.916 81.268 277.916 81.268C264.256 61.618 247.386 75.768 247.386 75.768C246.107 76.6907 244.771 77.5323 243.386 78.288L222.196 110.088C220.536 112.868 224.026 116.798 227.066 115.688C240.236 110.908 246.766 115.988 250.916 124.388C250.916 124.388 261.576 141.938 276.656 129.638C276.656 129.638 289.826 117.638 299.846 132.738C299.846 132.738 308.546 151.578 328.596 138.678C328.596 138.678 342.996 128.748 350.596 147.778C353.298 152.358 357.073 156.212 361.596 159.008L361.716 158.008C361.511 137.57 357.376 117.363 349.536 98.488Z" fill="#01BDB7"/>
<path d="M344.266 87.3381C341.499 85.2589 339.079 82.7545 337.096 79.9181C320.626 56.2081 300.496 73.3281 300.496 73.3281C274.446 91.9681 262.356 67.1081 262.356 67.1081C256.676 58.9381 250.516 55.9381 244.986 55.4081C235.466 54.4881 227.826 60.8881 227.826 60.8881C204.006 77.9881 192.226 54.4681 192.226 54.4681C187.206 45.5281 181.996 41.8981 174.996 42.6081L160.366 63.3981C158.306 66.4581 161.126 71.5381 165.366 69.4481C177.806 63.3081 185.486 65.1981 192.686 78.0281C192.686 78.0281 202.966 98.5581 223.756 87.2981C225.325 86.4412 226.838 85.486 228.286 84.4381C228.286 84.4381 247.366 68.4381 262.816 90.6581C262.816 90.6581 274.906 115.528 300.946 96.8881C300.946 96.8881 321.076 79.7681 337.546 103.478C337.546 103.478 344.276 113.868 355.616 115.758C352.828 105.917 349.024 96.3923 344.266 87.3381Z" fill="#287EB7"/>
<path d="M262.126 16.528C238.293 7.36958 213.193 1.93264 187.706 0.407959L159.936 39.848C157.876 42.848 160.686 47.988 164.936 45.848C168.074 44.1873 171.479 43.0907 174.996 42.608C181.936 41.898 187.186 45.528 192.206 54.468C192.206 54.468 203.986 77.988 227.806 60.888C227.806 60.888 235.446 54.488 244.966 55.408C250.496 55.938 256.656 58.938 262.336 67.108C262.336 67.108 274.426 91.968 300.476 73.328C300.476 73.328 320.606 56.208 337.076 79.918C339.059 82.7544 341.479 85.2588 344.246 87.338C328.386 57.108 301.386 31.838 262.126 16.528Z" fill="#3187BA"/>
<path d="M241.706 181.118C240.546 177.915 238.421 175.15 235.623 173.207C232.825 171.263 229.493 170.237 226.086 170.268C222.278 170.257 218.579 171.541 215.596 173.908C214.704 170.861 212.868 168.175 210.352 166.238C207.836 164.301 204.77 163.212 201.596 163.128C198.563 163.135 195.614 164.12 193.186 165.938C189.677 163.418 185.498 161.998 181.18 161.859C176.862 161.72 172.6 162.868 168.936 165.158V186.208H250.486C250.78 186.186 251.058 186.071 251.283 185.881C251.508 185.691 251.667 185.435 251.738 185.149C251.809 184.864 251.788 184.563 251.678 184.29C251.568 184.017 251.375 183.785 251.126 183.628C248.27 181.956 245.015 181.089 241.706 181.118Z" fill="white"/>
<path d="M272.766 233.708C272.305 233.714 271.861 233.537 271.53 233.217C271.198 232.897 271.007 232.459 270.996 231.998V173.598C270.996 173.134 271.18 172.689 271.509 172.361C271.837 172.033 272.282 171.848 272.746 171.848C273.21 171.848 273.655 172.033 273.984 172.361C274.312 172.689 274.496 173.134 274.496 173.598V231.998C274.486 232.452 274.3 232.884 273.977 233.203C273.654 233.522 273.22 233.703 272.766 233.708Z" fill="#374675"/>
<path d="M299.136 237.888C298.672 237.888 298.227 237.704 297.899 237.376C297.57 237.047 297.386 236.602 297.386 236.138V177.778C297.386 177.314 297.57 176.869 297.899 176.541C298.227 176.212 298.672 176.028 299.136 176.028C299.6 176.028 300.045 176.212 300.373 176.541C300.702 176.869 300.886 177.314 300.886 177.778V236.138C300.886 236.602 300.702 237.047 300.373 237.376C300.045 237.704 299.6 237.888 299.136 237.888Z" fill="#374675"/>
<path d="M336.216 231.068C335.752 231.068 335.307 230.884 334.979 230.555C334.65 230.227 334.466 229.782 334.466 229.318V186.658C334.466 186.194 334.65 185.749 334.979 185.421C335.307 185.092 335.752 184.908 336.216 184.908C336.68 184.908 337.125 185.092 337.453 185.421C337.782 185.749 337.966 186.194 337.966 186.658V229.318C337.966 229.782 337.782 230.227 337.453 230.555C337.125 230.884 336.68 231.068 336.216 231.068Z" fill="#374675"/>
<path d="M283.116 168.468C283.116 170.968 278.416 172.988 272.626 172.988C266.836 172.988 262.136 170.988 262.136 168.468C262.136 165.948 266.836 159.008 272.626 159.008C278.416 159.008 283.116 165.998 283.116 168.468Z" fill="#374675"/>
<path d="M286.796 179.838C286.796 183.568 280.456 184.948 272.626 184.948C264.796 184.948 258.446 183.568 258.446 179.838C258.446 176.108 264.796 166.078 272.626 166.078C280.456 166.078 286.796 176.108 286.796 179.838Z" fill="#374675"/>
<path d="M291.706 199.408C291.706 204.468 283.166 206.918 272.626 206.918C262.086 206.918 253.546 204.468 253.546 199.408C253.546 194.348 262.086 184.458 272.626 184.458C283.166 184.458 291.706 194.348 291.706 199.408Z" fill="#374675"/>
<path d="M289.286 189.688C289.286 193.948 281.826 197.408 272.626 197.408C263.426 197.408 255.996 193.998 255.996 189.688C255.996 185.378 263.456 175.418 272.656 175.418C281.856 175.418 289.286 185.418 289.286 189.688Z" fill="#374675"/>
<path d="M311.556 182.488C311.556 186.248 305.996 187.648 299.136 187.648C292.276 187.648 286.716 186.248 286.716 182.488C286.716 178.728 292.276 168.808 299.136 168.808C305.996 168.808 311.556 178.728 311.556 182.488Z" fill="#374675"/>
<path d="M315.836 200.198C315.836 204.198 308.296 206.028 299.066 205.878C289.836 205.728 282.376 203.668 282.406 199.658C282.436 195.648 289.976 185.168 299.206 185.318C308.436 185.468 315.866 196.198 315.836 200.198Z" fill="#374675"/>
<path d="M313.736 190.998C313.736 194.498 307.196 197.338 299.136 197.338C291.076 197.338 284.536 194.498 284.536 190.998C284.536 187.498 291.076 179.798 299.136 179.798C307.196 179.798 313.736 187.518 313.736 190.998Z" fill="#374675"/>
<path d="M342.346 187.998C342.346 189.558 339.046 190.128 336.216 190.128C333.386 190.128 330.086 189.558 330.086 187.998C330.086 186.438 333.386 182.508 336.216 182.508C339.046 182.508 342.346 186.478 342.346 187.998Z" fill="#374675"/>
<path d="M346.916 196.068C346.916 198.248 341.566 199.068 336.216 199.068C330.866 199.068 325.526 198.258 325.526 196.068C325.526 193.878 330.866 188.218 336.216 188.218C341.566 188.218 346.916 193.898 346.916 196.068Z" fill="#374675"/>
<path d="M120.776 216.938C135.646 223.708 151.266 229.548 171.616 250.118C222.386 301.448 326.966 286.268 352.736 216.938H120.776Z" fill="#374675"/>
<path d="M349.266 203.048C349.266 205.368 343.426 206.488 336.266 206.488C329.106 206.488 323.216 205.368 323.216 203.048C323.216 200.728 329.056 193.338 336.266 193.338C343.476 193.338 349.266 200.738 349.266 203.048Z" fill="#374675"/>
<path d="M165.156 165.208L181.356 157.268C188.356 143.268 199.616 152.188 199.616 152.188C201.616 154.188 204.286 157.288 203.326 162.188C203.012 163.712 202.389 165.155 201.497 166.429C200.604 167.704 199.461 168.782 198.136 169.598C193.826 183.108 188.556 195.508 181.766 201.938C172.466 210.738 144.286 233.868 139.926 206.418C139.926 206.418 131.646 183.388 165.156 165.208Z" fill="white"/>
<path d="M84.296 286.818C84.296 286.818 59.996 231.238 27.996 233.828C25.4236 234.045 22.9481 234.91 20.8006 236.343C18.653 237.775 16.9034 239.729 15.7151 242.02C14.5268 244.312 13.9385 246.868 14.0051 249.448C14.0717 252.029 14.7911 254.551 16.096 256.778C22.016 266.718 56.176 292.778 92.846 306.238L84.296 286.818Z" fill="#4F4F4F"/>
<path d="M131.796 295.938C143.696 265.038 172.906 251.278 209.436 255.268C209.413 252.632 209.226 250.001 208.876 247.388C202.786 201.998 158.796 157.048 121.996 154.218C114.808 153.845 107.602 154.349 100.536 155.718C96.1623 156.439 91.911 157.769 87.906 159.668C69.406 169.288 61.646 190.998 60.476 215.478C60.1096 224.036 60.4239 232.61 61.416 241.118C98.766 251.938 120.326 274.528 131.796 295.938Z" fill="white"/>
<path d="M131.796 295.938C135.494 302.794 138.392 310.051 140.436 317.568C173.806 314.228 209.676 292.818 209.436 255.268C172.906 251.278 143.696 264.998 131.796 295.938Z" fill="white"/>
<path d="M131.796 295.938C120.326 274.528 98.796 251.938 61.416 241.118C61.566 242.438 61.726 243.758 61.906 245.068C62.116 246.658 62.356 248.228 62.606 249.778C69.086 290.238 87.536 316.138 126.676 317.908C128.216 317.978 129.786 318.028 131.396 318.018H133.056C135.486 318.018 137.956 317.818 140.436 317.568C138.392 310.051 135.494 302.794 131.796 295.938Z" fill="#FF8762"/>
<path d="M148.996 127.438L123.496 105.588C119.246 101.758 113.286 104.808 112.966 110.948L111.966 133.288L148.996 127.438Z" fill="#EF8C6B"/>
<path d="M104.866 119.108C112.983 118.296 121.17 118.505 129.236 119.728C157.886 123.998 170.756 138.398 167.996 157.238C165.236 176.078 142.246 186.078 113.586 181.858C105.134 180.706 96.9324 178.158 89.3159 174.318C93.9951 168.088 97.8472 161.278 100.776 154.058C105.726 142.458 104.886 119.758 104.866 119.108Z" fill="white"/>
<path d="M117.676 140.428L120.776 146.348L134.876 147.498" stroke="#4F4F4F" stroke-width="2.35" stroke-linecap="round" stroke-linejoin="round"/>
<path d="M163.296 134.638C149.456 121.858 132.296 118.948 128.466 118.438" stroke="#4F4F4F" stroke-width="2.35" stroke-linecap="round" stroke-linejoin="round"/>
<path d="M97.356 124.468L77.926 110.698C73.276 107.408 67.856 111.138 68.276 117.268L69.996 139.548L97.356 124.468Z" fill="#4F4F4F"/>
<path d="M68.996 140.558L68.936 140.808L68.996 140.558Z" fill="white"/>
<path d="M68.996 140.558C72.056 128.298 86.786 120.998 104.866 119.078C86.806 120.998 72.076 128.308 68.996 140.558Z" fill="#4F4F4F"/>
<path d="M121.886 134.488C121.695 134.055 121.636 133.574 121.718 133.108C121.801 132.641 122.019 132.21 122.347 131.868C122.675 131.526 123.097 131.289 123.56 131.188C124.023 131.086 124.505 131.125 124.946 131.298C125.387 131.471 125.767 131.772 126.036 132.161C126.306 132.55 126.454 133.011 126.462 133.485C126.469 133.958 126.336 134.424 126.078 134.821C125.821 135.219 125.451 135.531 125.016 135.718C124.437 135.967 123.784 135.977 123.198 135.747C122.612 135.516 122.14 135.064 121.886 134.488Z" fill="#4F4F4F"/>
<path d="M106.846 139.848C106.661 139.416 106.608 138.94 106.694 138.478C106.779 138.016 106.999 137.59 107.326 137.253C107.653 136.917 108.073 136.684 108.532 136.585C108.991 136.486 109.469 136.525 109.906 136.697C110.342 136.869 110.719 137.166 110.987 137.551C111.255 137.937 111.404 138.393 111.413 138.862C111.423 139.332 111.294 139.794 111.041 140.19C110.789 140.586 110.425 140.898 109.996 141.088C109.708 141.215 109.398 141.284 109.083 141.291C108.768 141.297 108.455 141.241 108.162 141.126C107.869 141.011 107.602 140.838 107.376 140.619C107.15 140.4 106.97 140.138 106.846 139.848Z" fill="#4F4F4F"/>
<path d="M111.386 155.218L120.776 146.348" stroke="#4F4F4F" stroke-width="2.35" stroke-linecap="round" stroke-linejoin="round"/>
<path d="M69.276 139.598C69.426 139.118 69.586 138.648 69.776 138.178L69.856 137.978C74.226 127.278 88.106 120.848 104.856 119.108C104.856 119.758 106.016 140.808 101.856 156.318C98.926 167.228 86.936 205.678 60.476 215.478C60.336 169.888 67.226 145.778 69.276 139.598Z" fill="#4F4F4F"/>
<path d="M70.356 179.058C70.356 179.058 120.626 243.588 188.886 252.398" stroke="#4F4F4F" stroke-width="2.35" stroke-linecap="round" stroke-linejoin="round"/>
<path d="M194.575 253.124C196.17 252.143 196.208 249.308 194.66 246.791C193.112 244.274 190.565 243.029 188.97 244.01C187.375 244.99 187.337 247.826 188.885 250.343C190.433 252.86 192.98 254.105 194.575 253.124Z" stroke="#4F4F4F" stroke-width="1.8" stroke-linecap="round" stroke-linejoin="round"/>
<path d="M209.523 244.507C211.114 243.534 211.159 240.709 209.623 238.197C208.086 235.686 205.55 234.439 203.959 235.412C202.368 236.386 202.323 239.211 203.86 241.723C205.396 244.234 207.932 245.481 209.523 244.507Z" stroke="#4F4F4F" stroke-width="1.7936" stroke-linecap="round" stroke-linejoin="round"/>
<path d="M202.51 248.296C204.105 247.315 204.143 244.48 202.595 241.963C201.047 239.446 198.5 238.2 196.905 239.181C195.31 240.162 195.272 242.997 196.82 245.514C198.367 248.031 200.915 249.276 202.51 248.296Z" stroke="#4F4F4F" stroke-width="1.8" stroke-linecap="round" stroke-linejoin="round"/>
<path d="M206.598 246.186C208.193 245.205 208.231 242.37 206.684 239.853C205.136 237.336 202.588 236.091 200.993 237.071C199.399 238.052 199.36 240.888 200.908 243.404C202.456 245.921 205.004 247.167 206.598 246.186Z" stroke="#4F4F4F" stroke-width="1.8" stroke-linecap="round" stroke-linejoin="round"/>
<path d="M198.524 250.743C200.119 249.762 200.157 246.927 198.61 244.41C197.062 241.893 194.514 240.647 192.919 241.628C191.325 242.609 191.286 245.444 192.834 247.961C194.382 250.478 196.93 251.723 198.524 250.743Z" stroke="#4F4F4F" stroke-width="1.8" stroke-linecap="round" stroke-linejoin="round"/>
<path d="M230.449 267.19L214.419 237.888C213.661 236.502 211.924 235.993 210.538 236.751L187.657 249.267C186.272 250.025 185.763 251.763 186.521 253.149L202.55 282.451C203.308 283.837 205.046 284.346 206.432 283.588L229.312 271.071C230.698 270.313 231.207 268.576 230.449 267.19Z" fill="#FF8762"/>
<path d="M193.636 149.568C194.537 149.728 195.419 149.983 196.266 150.328C198.691 151.303 200.738 153.031 202.106 155.258C203.399 157.321 203.836 159.807 203.326 162.188C203.012 163.712 202.389 165.155 201.497 166.429C200.604 167.704 199.461 168.782 198.136 169.598C196.165 181.509 191.08 192.687 183.396 201.998" stroke="#4F4F4F" stroke-width="2.35" stroke-linecap="round" stroke-linejoin="round"/>
<path d="M130.886 70.418C127.666 61.818 118.626 55.618 107.966 55.618C102.436 55.5925 97.044 57.3454 92.586 60.618C91.5031 57.4388 89.6987 54.5537 87.3141 52.1886C84.9296 49.8235 82.0297 48.0428 78.8418 46.986C75.6539 45.9291 72.2645 45.6249 68.9394 46.0972C65.6142 46.5694 62.4436 47.8053 59.676 49.708C54.1704 46.0207 47.6822 44.0763 41.056 44.128C35.087 44.0866 29.2163 45.6475 24.056 48.648V77.358H143.746C144.16 77.3565 144.561 77.2186 144.889 76.9658C145.216 76.713 145.451 76.3593 145.557 75.9595C145.663 75.5597 145.634 75.1361 145.474 74.7544C145.315 74.3726 145.035 74.054 144.676 73.848C140.445 71.552 135.699 70.3716 130.886 70.418Z" fill="white"/>
<path d="M-50.2668 70.291C-47.0468 61.691 -38.0068 55.491 -27.3468 55.491C-21.8166 55.4656 -16.4248 57.2185 -11.9668 60.491C-10.8838 57.3119 -9.07939 54.4267 -6.69484 52.0616C-4.3103 49.6966 -1.41043 47.9158 1.77748 46.859C4.96539 45.8022 8.35473 45.498 11.6799 45.9702C15.005 46.4425 18.1756 47.6784 20.9432 49.581C26.4489 45.8938 32.9371 43.9494 39.5632 44.001C45.5322 43.9596 51.403 45.5206 56.5632 48.521V77.231H-63.1268C-63.5404 77.2295 -63.9419 77.0917 -64.2693 76.8389C-64.5966 76.586 -64.8314 76.2323 -64.9373 75.8325C-65.0433 75.4327 -65.0144 75.0091 -64.8552 74.6274C-64.696 74.2457 -64.4154 73.9271 -64.0568 73.721C-59.826 71.4251 -55.0801 70.2447 -50.2668 70.291Z" fill="white"/>
<path d="M245.336 102.178C246.236 102.178 246.966 101.448 246.966 100.548C246.966 99.6477 246.236 98.918 245.336 98.918C244.436 98.918 243.706 99.6477 243.706 100.548C243.706 101.448 244.436 102.178 245.336 102.178Z" fill="white"/>
<path d="M348.866 190.158C349.766 190.158 350.496 189.428 350.496 188.528C350.496 187.628 349.766 186.898 348.866 186.898C347.966 186.898 347.236 187.628 347.236 188.528C347.236 189.428 347.966 190.158 348.866 190.158Z" fill="white"/>
<path d="M318.846 161.988C319.746 161.988 320.476 161.258 320.476 160.358C320.476 159.458 319.746 158.728 318.846 158.728C317.946 158.728 317.216 159.458 317.216 160.358C317.216 161.258 317.946 161.988 318.846 161.988Z" fill="white"/>
<path d="M194.946 132.798C195.846 132.798 196.576 132.068 196.576 131.168C196.576 130.268 195.846 129.538 194.946 129.538C194.046 129.538 193.316 130.268 193.316 131.168C193.316 132.068 194.046 132.798 194.946 132.798Z" fill="white"/>
<path d="M121.556 42.1381C122.765 42.1381 123.746 41.1576 123.746 39.9481C123.746 38.7386 122.765 37.7581 121.556 37.7581C120.346 37.7581 119.366 38.7386 119.366 39.9481C119.366 41.1576 120.346 42.1381 121.556 42.1381Z" fill="white"/>
<path d="M161.276 95.1781C162.485 95.1781 163.466 94.1976 163.466 92.9881C163.466 91.7786 162.485 90.7981 161.276 90.7981C160.066 90.7981 159.086 91.7786 159.086 92.9881C159.086 94.1976 160.066 95.1781 161.276 95.1781Z" fill="white"/>
<path d="M296.066 97.368C297.275 97.368 298.256 96.3875 298.256 95.178C298.256 93.9685 297.275 92.988 296.066 92.988C294.856 92.988 293.876 93.9685 293.876 95.178C293.876 96.3875 294.856 97.368 296.066 97.368Z" fill="white"/>
<path d="M201.046 22.2181C202.255 22.2181 203.236 21.2376 203.236 20.0281C203.236 18.8186 202.255 17.8381 201.046 17.8381C199.836 17.8381 198.856 18.8186 198.856 20.0281C198.856 21.2376 199.836 22.2181 201.046 22.2181Z" fill="white"/>
<path d="M260.616 38.808C261.826 38.808 262.806 37.8275 262.806 36.618C262.806 35.4085 261.826 34.428 260.616 34.428C259.407 34.428 258.426 35.4085 258.426 36.618C258.426 37.8275 259.407 38.808 260.616 38.808Z" fill="white"/>
</svg>
