<svg width="375" height="340" viewBox="0 0 375 340" fill="none" xmlns="http://www.w3.org/2000/svg">
<path d="M204.045 264.226C151.216 314.67 40.1411 297.112 20.2156 224.691C0.29001 152.27 27.4539 75.3439 113.555 43.61C185.799 16.9763 292.185 19.9986 316.949 87.6974C329.257 121.33 328.297 156.133 308.181 186.327C269.35 244.629 247.415 222.793 204.045 264.226Z" fill="#FBB89B"/>
<path d="M160.867 160.41C162.798 154.727 168.234 150.633 174.627 150.633C177.947 150.611 181.186 151.761 183.869 153.913C184.519 151.811 185.603 149.903 187.035 148.339C188.467 146.776 190.208 145.598 192.123 144.898C194.038 144.199 196.074 143.997 198.072 144.309C200.07 144.62 201.975 145.436 203.638 146.693C206.942 144.25 210.84 142.963 214.82 143.001C218.398 142.99 221.913 144.034 225 146.023V165H153.143C152.892 165.004 152.647 164.916 152.447 164.75C152.247 164.583 152.103 164.348 152.038 164.081C151.973 163.814 151.992 163.532 152.09 163.277C152.188 163.023 152.361 162.813 152.581 162.679C155.124 161.164 157.975 160.384 160.867 160.41Z" fill="white"/>
<path d="M106 238.855C106 238.855 101.621 217.205 95.5768 212.635C93.7636 211.261 89.3843 209.515 87.5909 210.125C80.3977 212.587 78 240 78 240L106 238.855Z" fill="#9B4E5E"/>
<path d="M179 238.859C179 238.859 174.621 217.288 168.577 212.734C166.764 211.365 163.187 209.302 160.591 210.234C153.437 212.81 151 240 151 240L179 238.859Z" fill="#944352"/>
<path d="M170 243.866C170 243.866 165.621 222.415 159.577 217.887C157.764 216.525 154.137 215.41 151.591 216.346C144.467 218.974 142 245 142 245L170 243.866Z" fill="#944352"/>
<path d="M255 233C240.135 239.383 224.499 244.888 204.152 264.281C153.355 312.673 48.7389 298.362 23 233H255Z" fill="#944352"/>
<path d="M253 181.393L240.993 176.177C238.601 175.317 237.531 177.727 236.47 180.411L231.807 199.99C230.386 203.487 236.11 208.948 234.429 207.956L210.784 202.768C207.112 201.823 205.781 201.701 199.127 203.524L169.89 214.061C166.167 215.129 165.197 217.33 163.836 223.558L161.024 238.318C160.985 238.524 160.994 238.736 161.05 238.938C161.107 239.14 161.21 239.328 161.352 239.489C161.495 239.65 161.673 239.779 161.874 239.867C162.075 239.955 162.294 240.001 162.515 240H232.968L253 181.393Z" fill="#9B4E5E"/>
<path d="M413.236 91.0537C411.358 87.3851 405.484 79.6462 388.96 76.3257C377.226 73.9156 365.928 78.5751 361.681 81.9223C360.028 71.211 339.033 61.5173 324.401 72.4294C319.903 67.0738 309.849 63.8202 300.84 65.4002C294.543 66.4981 284.29 71.9073 282.319 81.9223C277.85 78.4259 272.356 76.5409 266.708 76.5667C255.913 76.5667 249.126 80.811 245.859 90.0629C239.972 88.8044 235.857 89.514 232.113 92.0579C229.467 93.8654 228.779 96.0746 229.057 97.4136C229.28 98.2131 229.772 98.9084 230.449 99.3781C231.126 99.8479 231.944 100.062 232.761 99.9843H406.555C415.935 99.9039 414.149 92.8345 413.236 91.0537Z" fill="white"/>
<path d="M292.409 294.782C292.409 294.782 314.039 238.992 346.226 240.014C348.81 240.105 351.329 240.837 353.547 242.14C355.765 243.444 357.612 245.277 358.914 247.469C360.216 249.661 360.932 252.141 360.995 254.678C361.058 257.215 360.466 259.726 359.275 261.978C353.826 272.034 320.87 299.222 284.78 314.244L292.409 294.782Z" fill="#4F4F4F"/>
<path d="M312.736 260.866C312.909 259.324 313.073 257.762 313.207 256.172C314.083 246.38 314.083 236.529 313.207 226.737C310.879 202.516 302.142 181.332 283.378 172.677C279.306 170.982 275.018 169.866 270.638 169.361C263.575 168.34 256.414 168.188 249.314 168.908C212.999 173.486 171.575 220.193 167.677 265.521C163.78 310.849 209.054 332.988 246.177 331.966C246.735 331.966 247.274 331.908 247.823 331.88C249.112 312.276 263.488 274.041 312.736 260.866Z" fill="white"/>
<path d="M312.861 260.766C263.376 273.982 248.93 312.306 247.673 332C289.898 330.124 308.182 302.947 312.861 260.766Z" fill="#FF8762"/>
<path d="M221.598 144.329L245.254 121.2C249.196 117.162 255.115 119.925 255.708 126.065L257.702 148.396L221.598 144.329Z" fill="#EF8C6B"/>
<path d="M264.741 133.47C256.677 133.064 248.594 133.661 240.677 135.246C212.561 140.824 200.52 155.695 204.188 174.177C207.856 192.658 231.017 201.462 259.143 195.913C267.443 194.357 275.429 191.438 282.775 187.272C277.845 181.341 273.704 174.797 270.455 167.802C264.991 156.598 264.751 134.122 264.741 133.47Z" fill="white"/>
<path d="M252.688 155.419L249.848 161.557L235.639 163.446" stroke="#4F4F4F" stroke-width="2.42" stroke-linecap="round" stroke-linejoin="round"/>
<path d="M207.558 151.406C220.427 138.575 236.975 135.008 240.653 134.35" stroke="#4F4F4F" stroke-width="2.42" stroke-linecap="round" stroke-linejoin="round"/>
<path d="M250.478 161.439C250.478 161.439 247.687 171.194 252.539 172.323C252.539 172.323 256.313 174.011 255.609 166.149L250.478 161.439Z" fill="#F49AB2"/>
<path d="M271.743 138.555L290.728 123.72C295.28 120.174 300.943 123.72 300.825 129.874L300.196 152.409L271.743 138.555Z" fill="#4F4F4F"/>
<path d="M299.267 156.729C299.296 156.806 299.321 156.885 299.342 156.965C299.321 156.885 299.296 156.806 299.267 156.729Z" fill="white"/>
<path d="M299.267 156.729C295.733 144.964 281.098 138.553 263.458 137.554C281.089 138.563 295.761 144.973 299.267 156.729Z" fill="#4F4F4F"/>
<path d="M248.509 149.798C248.687 149.334 248.724 148.828 248.614 148.343C248.505 147.859 248.253 147.417 247.892 147.076C247.532 146.734 247.078 146.508 246.588 146.425C246.098 146.342 245.595 146.406 245.141 146.61C244.688 146.813 244.306 147.147 244.043 147.569C243.779 147.99 243.647 148.48 243.663 148.977C243.679 149.474 243.842 149.955 244.131 150.359C244.421 150.763 244.823 151.072 245.288 151.246C245.908 151.478 246.594 151.457 247.197 151.186C247.8 150.914 248.272 150.416 248.509 149.798Z" fill="#4F4F4F"/>
<path d="M263.556 154.124C263.732 153.753 263.767 153.348 263.656 152.961C263.544 152.574 263.292 152.222 262.93 151.95C262.568 151.678 262.114 151.498 261.624 151.433C261.134 151.368 260.631 151.421 260.179 151.584C259.726 151.748 259.345 152.016 259.083 152.353C258.821 152.69 258.69 153.082 258.707 153.479C258.723 153.876 258.887 154.26 259.177 154.582C259.467 154.905 259.87 155.151 260.335 155.29C260.642 155.383 260.969 155.427 261.298 155.418C261.626 155.41 261.949 155.35 262.248 155.242C262.547 155.133 262.817 154.979 263.041 154.787C263.265 154.595 263.44 154.37 263.556 154.124Z" fill="#4F4F4F"/>
<path d="M259.708 169.465L249.679 161.439" stroke="#4F4F4F" stroke-width="2.42" stroke-linecap="round" stroke-linejoin="round"/>
<path d="M283.661 186.165L267.392 178.907C259.908 165.254 249.209 174.582 249.209 174.582C247.295 176.672 244.817 179.856 245.956 184.703C246.326 186.207 246.996 187.618 247.926 188.849C248.856 190.081 250.026 191.107 251.363 191.864C256.147 205.159 266.617 218.3 273.967 228.479C274.531 229.263 275.201 229.969 275.795 230.724C283.68 240.71 307.021 253.734 310.246 226.205C310.179 226.205 317.424 202.924 283.661 186.165Z" fill="white"/>
<path d="M254.813 171.472C253.159 171.852 251.599 172.587 250.233 173.629C248.866 174.671 247.722 175.998 246.873 177.525C245.705 179.652 245.37 182.166 245.938 184.544C246.299 186.059 246.955 187.48 247.864 188.721C248.773 189.961 249.915 190.995 251.222 191.758C253.607 203.624 258.956 214.623 266.728 223.644" stroke="#4F4F4F" stroke-width="2.42" stroke-linecap="round" stroke-linejoin="round"/>
<path d="M300.641 151.948C300.469 151.477 300.288 150.986 300.078 150.573C300.031 150.448 299.993 150.371 299.993 150.371C295.226 139.973 281.271 134.27 264.723 133.346C264.723 134 264.608 154.891 269.432 170.05C272.825 180.716 286.428 218.218 312.861 226.653C310.85 181.505 302.948 157.969 300.641 151.948Z" fill="#4F4F4F"/>
<path d="M232.859 192.238L245.049 186.84C245.44 186.618 245.887 186.508 246.339 186.523C246.791 186.537 247.23 186.676 247.605 186.922C247.981 187.169 248.278 187.514 248.464 187.918C248.649 188.322 248.715 188.769 248.654 189.208L245.358 203.497C245.306 203.911 245.144 204.304 244.888 204.637C244.632 204.97 244.291 205.232 243.899 205.395C243.507 205.558 243.078 205.617 242.656 205.567C242.233 205.516 241.832 205.358 241.491 205.107L232.608 196.206C232.283 195.971 232.024 195.66 231.854 195.302C231.683 194.944 231.607 194.549 231.632 194.155C231.657 193.76 231.782 193.378 231.997 193.043C232.211 192.708 232.508 192.432 232.859 192.238Z" fill="#4F4F4F"/>
<path d="M232.259 196.246L220.018 202.339C219.613 202.536 219.163 202.611 218.718 202.557C218.274 202.504 217.853 202.323 217.502 202.035C217.15 201.747 216.883 201.363 216.73 200.926C216.577 200.49 216.543 200.017 216.633 199.562L220.287 185.509C220.371 185.086 220.558 184.692 220.832 184.367C221.105 184.041 221.455 183.795 221.847 183.652C222.24 183.509 222.661 183.474 223.07 183.551C223.479 183.628 223.862 183.814 224.182 184.09L232.779 192.081C233.086 192.35 233.324 192.696 233.47 193.085C233.615 193.475 233.665 193.896 233.613 194.311C233.561 194.725 233.41 195.12 233.174 195.458C232.937 195.796 232.623 196.067 232.259 196.246Z" fill="#4F4F4F"/>
<path d="M104.72 85.3741C104.72 85.3741 104.588 85.5626 104.343 85.8832L105.144 84.9404L104.72 85.3741Z" fill="#FBB89B"/>
<path d="M21.3882 149.136C33.4064 130.886 47.1673 143.789 47.1673 143.789C66.5267 160.788 79.6767 142.936 79.6767 142.936C93.5377 129.142 105.566 143.998 105.566 143.998C119.637 159.47 134.67 143.306 134.67 143.306C140.84 135.399 148.942 131.351 162.372 138.708C165.477 140.405 170.054 137.001 168.782 133.816L158.296 111.063C156.267 110.231 154.329 109.215 152.507 108.029C150.876 106.97 149.317 105.814 147.84 104.569C147.84 104.569 128.621 85.8161 109.081 107.346C109.081 107.346 92.9268 131.996 66.3364 109.745C66.3364 109.745 51.584 95.1639 34.2878 105.175C25.0854 120.253 18.8866 136.802 16 154C17.9675 152.558 19.7731 150.928 21.3882 149.136Z" fill="#F89671"/>
<path d="M224.504 89.9264L216.543 76.3477C214.353 75.1001 211.992 74.1456 209.527 73.5109C202.084 71.7048 195.764 74.6362 188.848 83.1181C188.848 83.1181 172.19 105.623 149.043 84.2434C149.043 84.2434 141.758 76.4423 131.25 75.9222C125.279 75.6196 118.223 77.6904 110.879 84.9053L110.033 85.8509C104.63 91.6285 90.3993 102.437 69.9691 85.2741C66.299 81.9041 61.8269 79.4257 56.9328 78.0498L56.4651 78.5131C53.42 81.4507 50.544 84.4829 47.8373 87.6097C43.0773 93.1386 38.7849 99.0164 35 105.188C52.1761 95.2028 66.8444 109.746 66.8444 109.746C93.1459 131.901 109.207 107.316 109.207 107.316C128.623 85.8414 147.719 104.545 147.719 104.545C149.187 105.788 150.736 106.941 152.357 107.997C154.166 109.18 156.093 110.193 158.108 111.023C176.25 118.37 187.435 101.68 187.435 101.68C196.76 89.1037 205.348 87.9596 218.284 95.6851C222.703 98.3044 226.365 93.3211 224.504 89.9264Z" fill="#EF8168"/>
<path d="M226.571 73.3497L202.732 28.0003C172.111 27.9569 141.745 33.2748 113.164 43.6861C89.8859 52.2834 70.9146 64.202 56 78.436C60.9261 79.8168 65.4275 82.3039 69.1217 85.6858C89.6856 102.909 104.009 92.0626 109.448 86.2647C109.709 85.942 109.849 85.7522 109.849 85.7522L110.3 85.3157C117.692 78.0754 124.773 75.9972 130.803 76.3009C141.381 76.8228 148.713 84.6515 148.713 84.6515C172.011 106.107 188.779 83.5223 188.779 83.5223C195.791 74.9819 202.101 72.0686 209.593 73.8811C212.074 74.518 214.451 75.4759 216.655 76.7279C217.777 77.3447 218.929 78.0374 220.121 78.8156C224.408 81.6813 228.324 76.8418 226.571 73.3497Z" fill="#E45B5B"/>
<path d="M86.9525 212.253C86.6926 208.486 85.2732 205.049 82.2844 203.777L49.6179 189.359C48.2317 188.742 46.7177 188.423 45.1848 188.423C43.6518 188.423 42.1379 188.742 40.7516 189.359L34.4442 192.702C32.3851 193.597 30.8057 192.081 29.0564 188.935L23.3288 178.943C22.0293 176.532 20.7099 174.357 17.7711 175.176L14.0327 176.325C13.7096 192.654 15.7851 208.947 20.2001 224.741C22.0439 231.455 24.774 237.926 28.3267 244H93L86.9525 212.253Z" fill="#944352"/>
</svg>
