<svg width="36" height="36" viewBox="0 0 36 36" fill="none" xmlns="http://www.w3.org/2000/svg">
<path d="M28.9492 21.1999C28.9492 25.3745 24.5613 29.0999 18.6746 29.0999C12.7879 29.0999 8.4 25.3745 8.4 21.1999C8.4 17.0253 12.7879 13.2999 18.6746 13.2999C24.5613 13.2999 28.9492 17.0253 28.9492 21.1999Z" stroke="#7E7E7E" stroke-width="1.8"/>
<path d="M28.4531 21.9336C20.6308 21.9336 18.6753 16.5558 18.6753 13.8669C22.1674 13.867 23.8287 14.6915 25.6594 16.0669C27.4901 17.4426 29.8499 21.9336 28.4531 21.9336Z" fill="#7E7E7E" stroke="#7E7E7E"/>
<path d="M9.24561 17.9L9.72191 10.3044C9.77671 9.43054 10.8485 9.04405 11.4484 9.6818L14.8329 13.28" stroke="#7E7E7E" stroke-width="1.8" stroke-linecap="round" stroke-linejoin="round"/>
<path d="M27.6078 10.2897L28.0075 17.6081C28.0498 18.3831 27.2314 18.9088 26.5441 18.548L26.0083 18.2667L22.353 16.3476C22.0239 16.1749 21.8178 15.8339 21.8178 15.4622V14.2707C21.8178 14.0115 21.9184 13.7625 22.0984 13.576L25.8899 9.64956C26.4964 9.02145 27.5601 9.41781 27.6078 10.2897Z" fill="#7E7E7E" stroke="#7E7E7E" stroke-width="1.8" stroke-linecap="round" stroke-linejoin="round"/>
<path d="M15.8809 24.8666L18.6745 23.3999M18.6745 23.3999V20.4666M18.6745 23.3999L21.4682 24.8666" stroke="#7E7E7E" stroke-width="1.5" stroke-linecap="round"/>
</svg>
