<svg width="36" height="36" viewBox="0 0 36 36" fill="none" xmlns="http://www.w3.org/2000/svg">
<path d="M9.7335 12.7917C9.7335 12.1842 10.226 11.6917 10.8335 11.6917H13.6835V20.4334H10.8335C10.226 20.4334 9.7335 19.9409 9.7335 19.3334V12.7917Z" stroke="#7E7E7E" stroke-width="1.8" stroke-linejoin="round"/>
<path d="M13.625 18.4583V27.9999C13.625 28.5522 14.0727 28.9999 14.625 28.9999H16.4583C17.0106 28.9999 17.4583 28.5522 17.4583 27.9999V21.3333" stroke="#7E7E7E" stroke-width="1.8" stroke-linejoin="round"/>
<path d="M13.567 12.6792C13.567 12.209 13.8658 11.7908 14.3107 11.6385L25.644 7.75808C26.3579 7.51365 27.1003 8.04419 27.1003 8.79877V23.3262C27.1003 24.0808 26.3579 24.6114 25.644 24.3669L14.3107 20.4865C13.8658 20.3342 13.567 19.916 13.567 19.4458V12.6792Z" stroke="#7E7E7E" stroke-width="1.8"/>
</svg>
