<svg width="85" height="27" viewBox="0 0 85 27" fill="none" xmlns="http://www.w3.org/2000/svg">
<g clip-path="url(#clip0)">
<path d="M15.0494 7.26409C13.8216 6.0166 12.2562 5.16503 10.5507 4.8168C8.84517 4.46857 7.07595 4.63927 5.46619 5.30737C3.85643 5.97548 2.47823 7.11105 1.50545 8.57087C0.53266 10.0307 0.00885785 11.7493 0.000111327 13.5101C-0.0071765 14.9771 0.343454 16.4233 1.0209 17.7204C1.69834 19.0174 2.68165 20.1252 3.88359 20.9455C5.08554 21.7658 6.46896 22.2732 7.91113 22.4226C9.3533 22.5721 10.8096 22.359 12.1509 21.8024C13.4922 21.2457 14.677 20.3626 15.6002 19.2314C16.5234 18.1002 17.1564 16.756 17.4431 15.3179C17.7298 13.8798 17.6614 12.3923 17.2438 10.9873C16.8263 9.58243 16.0725 8.30352 15.0494 7.26409ZM8.80866 18.1142C7.90789 18.1133 7.02759 17.8423 6.27899 17.3353C5.53039 16.8283 4.94709 16.1081 4.60278 15.2658C4.25848 14.4234 4.16862 13.4967 4.34457 12.6027C4.52052 11.7087 4.95437 10.8875 5.59131 10.2429C6.22826 9.59833 7.0397 9.15927 7.92312 8.98121C8.80655 8.80316 9.7223 8.89409 10.5547 9.24252C11.387 9.59095 12.0987 10.1813 12.5997 10.9388C13.1007 11.6964 13.3685 12.5873 13.3694 13.4988C13.3676 14.7224 12.8866 15.8953 12.0316 16.7604C11.1767 17.6256 10.0177 18.1124 8.80866 18.1142Z" fill="#3E3E3E"/>
<path d="M32.3737 4.61841C31.844 4.61841 31.3359 4.83137 30.9614 5.21045C30.5868 5.58952 30.3763 6.10366 30.3763 6.63976V15.9155C30.3763 17.6808 28.7229 18.3097 27.176 18.3097C25.5692 18.3097 23.847 17.6875 23.847 15.9402V6.63976C23.7865 6.15107 23.5517 5.70158 23.1867 5.37571C22.8218 5.04984 22.3519 4.87002 21.8652 4.87002C21.3785 4.87002 20.9085 5.04984 20.5436 5.37571C20.1787 5.70158 19.9439 6.15107 19.8833 6.63976V15.9155C19.8833 19.0419 21.7986 22.3816 27.1738 22.3816C30.7536 22.3816 34.3645 20.3894 34.3645 15.9402V6.63976C34.3645 6.10483 34.155 5.59171 33.7818 5.21282C33.4087 4.83394 32.9023 4.62019 32.3737 4.61841V4.61841Z" fill="#3E3E3E"/>
<path d="M68.3025 15.0485C68.0083 15.0493 67.7177 15.1134 67.4498 15.2366C67.182 15.3597 66.9431 15.5391 66.7489 15.7627L66.7245 15.7942C66.6713 15.8728 66.6136 15.9492 66.5514 16.0323C66.091 16.6409 65.4848 17.1207 64.7901 17.4262C64.0955 17.7318 63.3353 17.853 62.5814 17.7784C61.8276 17.7039 61.1049 17.436 60.4819 17.0002C59.8588 16.5643 59.3558 15.9748 59.0206 15.2875C58.6853 14.6002 58.5287 13.8376 58.5657 13.072C58.6027 12.3064 58.832 11.563 59.232 10.9121C59.6319 10.2611 60.1893 9.72411 60.8515 9.35185C61.5136 8.97959 62.2586 8.78436 63.016 8.7846C63.6987 8.79075 64.3716 8.95053 64.9857 9.25236C65.5999 9.55419 66.14 9.99051 66.567 10.5297C66.6202 10.5948 66.6713 10.6644 66.7201 10.7341L66.7401 10.7588C66.8987 10.9702 67.1049 11.1404 67.3415 11.2551C68.7197 11.8952 70.3798 10.9497 70.3709 9.36405C70.3709 8.76438 70.1001 8.31969 69.7362 7.8705C69.5608 7.6459 69.3722 7.43928 69.1791 7.23939C67.5349 5.59039 65.3175 4.65912 63.0027 4.64532C60.7299 4.6459 58.5499 5.55737 56.9395 7.18035C55.3291 8.80332 54.4194 11.0057 54.4094 13.3057C54.4198 15.0248 54.9325 16.7024 55.883 18.1272C56.8336 19.552 58.1794 20.6604 59.7511 21.3128C61.3228 21.9652 63.0501 22.1325 64.7155 21.7935C66.381 21.4545 67.9101 20.6245 69.1103 19.4079C69.3695 19.1391 69.6126 18.8549 69.8383 18.5567C69.9961 18.3631 70.1281 18.1494 70.2311 17.9211C70.3294 17.6757 70.3792 17.4132 70.3776 17.1485C70.3776 16.5915 70.1589 16.0574 69.7698 15.6636C69.3806 15.2698 68.8528 15.0485 68.3025 15.0485Z" fill="#3E3E3E"/>
<path d="M83.4628 18.094C83.363 18.0777 83.2621 18.0695 83.161 18.0693H76.6406L76.6273 14.7386H83.2964C83.5266 14.7386 83.7546 14.6927 83.9673 14.6035C84.1801 14.5144 84.3733 14.3837 84.5362 14.2189C84.699 14.0542 84.8281 13.8586 84.9162 13.6433C85.0043 13.428 85.0497 13.1973 85.0497 12.9643C85.0497 12.7313 85.0043 12.5006 84.9162 12.2853C84.8281 12.0701 84.699 11.8745 84.5362 11.7097C84.3733 11.5449 84.1801 11.4142 83.9673 11.3251C83.7546 11.2359 83.5266 11.19 83.2964 11.19H76.6273V8.51285H83.1477C83.6464 8.49571 84.1191 8.28316 84.4659 7.92007C84.8127 7.55697 85.0065 7.07173 85.0065 6.56675C85.0065 6.06176 84.8127 5.57652 84.4659 5.21342C84.1191 4.85033 83.6464 4.63778 83.1477 4.62064H74.7142C74.2044 4.62123 73.7157 4.82627 73.355 5.19083C72.9944 5.55539 72.7912 6.04976 72.79 6.56562C72.79 6.56562 72.8034 20.0413 72.8034 20.0413C72.8058 20.5227 72.9854 20.9859 73.3071 21.3405C73.6288 21.6951 74.0696 21.9158 74.5433 21.9593H83.3053C84.9099 21.847 85.6578 19.765 84.5148 18.6331C84.2285 18.3465 83.8606 18.158 83.4628 18.094Z" fill="#3E3E3E"/>
<path d="M50.7408 4.64982C50.5426 4.62469 50.342 4.62469 50.1438 4.64982C49.7067 4.70688 49.3008 4.9096 48.9902 5.226C48.6795 5.5424 48.4818 5.95445 48.4283 6.39716C48.3794 6.88678 48.4283 14.8936 48.4283 15.2372C48.4283 15.2372 41.2443 5.94124 40.4386 5.13045C40.3473 5.04461 40.2468 4.96929 40.139 4.90586C39.7769 4.69519 39.36 4.60105 38.9438 4.63596C38.5275 4.67086 38.1316 4.83315 37.8087 5.10126C37.1784 5.64927 37.1429 6.44882 37.1429 7.22592C37.1429 7.38313 37.1429 19.7111 37.1429 19.8324C37.1403 20.1202 37.1884 20.4062 37.285 20.6769C37.4376 21.1141 37.7382 21.4825 38.1334 21.7172C38.5286 21.9518 38.9931 22.0374 39.4447 21.9589C39.8962 21.8804 40.3059 21.6428 40.6011 21.2882C40.8963 20.9336 41.0581 20.4847 41.0578 20.0211V11.3809L48.8255 21.1889L48.8943 21.2743C49.045 21.4604 49.2259 21.6191 49.4292 21.7437C49.5191 21.7977 49.6143 21.8421 49.7133 21.8762C49.9333 21.9534 50.164 21.9951 50.3968 21.9997C51.3778 21.9997 52.3632 21.1463 52.3632 20.1558V6.55663C52.3648 6.09442 52.2016 5.64712 51.9036 5.29686C51.6056 4.94659 51.1927 4.71685 50.7408 4.64982Z" fill="#3E3E3E"/>
</g>
<defs>
<clipPath id="clip0">
<rect width="85" height="27" fill="white"/>
</clipPath>
</defs>
</svg>
