<svg width="68" height="19" viewBox="0 0 68 19" fill="none" xmlns="http://www.w3.org/2000/svg">
<path d="M14.5206 18.4V0.92H12.7406V18.4H14.5206ZM0.720622 8.4C0.720622 11.88 2.12062 14.6 5.22062 14.6C8.32062 14.6 9.70062 11.88 9.70062 8.42C9.70062 4.94 8.32062 2.24 5.22062 2.24C2.12062 2.24 0.720622 4.94 0.720622 8.4ZM7.94062 8.42C7.94062 11.12 7.02062 13.06 5.22062 13.06C3.44062 13.06 2.52062 11.12 2.52062 8.42C2.52062 5.72 3.44062 3.76 5.22062 3.76C7.02062 3.76 7.94062 5.72 7.94062 8.42ZM31.0053 4.64C31.0053 2.64 28.8053 1.38 24.9853 1.38C21.1853 1.38 18.9653 2.64 18.9653 4.64C18.9653 5.8 19.6653 6.7 21.0053 7.26V9.68H17.1053V11.12H32.8853V9.68H28.9053V7.3C30.2653 6.74 31.0053 5.82 31.0053 4.64ZM31.2053 15.22C31.2053 13.22 28.8653 12.08 24.9853 12.08C21.1253 12.08 18.8053 13.22 18.8053 15.22C18.8053 17.22 21.1253 18.38 24.9853 18.38C28.8653 18.38 31.2053 17.22 31.2053 15.22ZM29.2053 4.64C29.2053 5.84 27.5453 6.5 24.9853 6.5C22.4053 6.5 20.7853 5.84 20.7853 4.64C20.7853 3.44 22.4053 2.78 24.9853 2.78C27.5853 2.78 29.2053 3.44 29.2053 4.64ZM24.9853 13.5C27.5853 13.5 29.3453 14.08 29.3453 15.24C29.3453 16.36 27.6053 16.94 24.9853 16.94C22.4053 16.94 20.6853 16.36 20.6853 15.24C20.6853 14.08 22.4053 13.5 24.9853 13.5ZM24.9853 7.92C25.7853 7.92 26.5053 7.86 27.1453 7.76V9.68H22.7653V7.74C23.4253 7.86 24.1653 7.92 24.9853 7.92ZM38.93 1.9C36.37 1.9 34.29 3.62 34.29 6.1C34.29 8.62 36.39 10.22 38.93 10.22C41.51 10.22 43.57 8.6 43.57 6.1C43.57 3.6 41.49 1.9 38.93 1.9ZM50.21 7.22H47.61V5.06H50.21V3.6H47.61V0.92H45.83V11.2H47.61V8.7H50.21V7.22ZM47.61 18.42V12.1H36.29V13.52H45.85V18.42H47.61ZM38.93 3.4C40.67 3.4 41.77 4.56 41.77 6.1C41.77 7.68 40.63 8.78 38.93 8.78C37.29 8.78 36.11 7.68 36.11 6.08C36.11 4.56 37.27 3.4 38.93 3.4ZM67.2947 7.9V6.42H64.6947V0.92H62.9547V14H64.6947V7.9H67.2947ZM65.3147 17.96V16.52H55.3147V12.86H53.5547V17.96H65.3147ZM61.9747 10.86L61.7747 9.5C60.4347 9.7 58.1547 9.88 56.1947 9.94V6.24H54.4347V9.98C53.1747 10.02 51.7547 10.02 50.7547 10.02L51.0147 11.5C52.3347 11.5 54.5147 11.46 56.3947 11.36C58.0947 11.3 60.5147 11.08 61.9747 10.86ZM60.5547 2.24H51.9547V3.68H58.7747C58.7747 5.52 58.6547 7 58.3347 8.08L60.0547 8.36C60.4347 6.94 60.5547 5.08 60.5547 2.24Z" fill="#343434"/>
</svg>
